#!OML:ASF F:\VICON\USERDATA\INSTALL\rory3\rory3.ASF
:FULLY-SPECIFIED
:DEGREES
10
root 1.1272099999999994 17.6077 -23.671299999999988 -1.5792099999999978 1.666530000000004 2.1884699999999957
lfemur 12.638700000000002 -2.3060000000000005 -26.77610000000001
ltibia 17.030400000000014
lfoot -18.693800000000014 -2.4658300000000004
ltoes -1.5328499999999956
rfemur -30.489200000000032 8.41913999999999 15.498899999999987
rtibia 20.529899999999984
rfoot -7.602990000000002 -9.407979999999997
rtoes 5.281279999999998
lowerback 1.0 -1.8459800000000026 -4.337620000000005
upperback -0.5037490000000006 -2.893509999999997 2.410659999999999
thorax -6.78598 -1.2180399999999998 5.511299999999993
lowerneck -14.709699999999998 -1.9348400000000017 -3.146519999999997
upperneck 21.8881 -1.6485699999999968 -1.1741099999999987
head 9.34818 -1.1669499999999993 -0.08132030000000001
lclavicle -5.864149999999997e-15 -9.541660000000018e-15
lhumerus -23.588800000000017 -3.4716799999999894 79.9701
lradius 37.277199999999986
lwrist 9.771840000000013
lhand -32.169700000000006 23.0765
lfingers 7.12502
lthumb -5.412539999999993 52.9873
rclavicle -5.864149999999997e-15 -9.541660000000018e-15
rhumerus -37.78860000000002 -27.52829999999999 -68.18230000000001
rradius 20.139200000000006
rwrist 10.684900000000003
rhand -19.0483 1.0
rfingers 7.12502
rthumb 7.258519999999999 -8.15757
11
root 1.013930000000001 17.5652 -22.879299999999958 -1.5699000000000012 2.2278099999999936 2.178139999999994
lfemur 13.833400000000003 -3.332760000000001 -26.289499999999997
ltibia 19.742399999999975
lfoot -17.438999999999982 -4.023909999999996
ltoes -5.5699200000000015
rfemur -30.663100000000036 7.463600000000002 16.55789999999999
rtibia 25.42529999999997
rfoot -4.864390000000006 -8.753789999999999
rtoes 0.25053800000000415
lowerback 1.0 -1.872109999999998 -4.354459999999995
upperback -0.36785199999999885 -2.9442100000000018 2.172170000000001
thorax -6.629139999999998 -1.254979999999997 5.266329999999996
lowerneck -16.2963 -1.9435400000000018 -2.5834200000000016
upperneck 22.1837 -1.7574000000000038 -1.1034600000000003
head 9.74237 -1.16642 -0.18330299999999994
lclavicle -5.665359999999999e-15 -2.7034699999999996e-14
lhumerus -23.60799999999999 -4.30502 79.9899
lradius 37.68529999999998
lwrist 10.038800000000007
lhand -32.036500000000004 21.391599999999997
lfingers 7.12502
lthumb -5.283989999999992 51.305699999999995
rclavicle -5.665359999999999e-15 -2.7034699999999996e-14
rhumerus -39.1749 -32.19480000000001 -65.53129999999999
rradius 18.8489
rwrist 14.391399999999987
rhand -19.1651 1.0
rfingers 7.12502
rthumb 7.14576 -8.01525
12
root 0.9253289999999994 17.6396 -22.07060000000002 -1.9554500000000004 2.205949999999998 0.9392239999999963
lfemur 13.81530000000002 -4.724430000000002 -24.8933
ltibia 25.26659999999999
lfoot -14.122799999999994 -5.4189400000000045
ltoes -14.458499999999988
rfemur -29.93539999999998 6.352919999999999 19.051600000000015
rtibia 28.747800000000005
rfoot -1.153370000000007 -6.16542
rtoes 3.68227
lowerback 1.0 -2.1949199999999998 -3.241349999999991
upperback -0.49172799999999905 -3.1842799999999993 2.7023199999999976
thorax -6.766349999999997 -1.395210000000003 5.245150000000004
lowerneck -16.5266 -1.7450200000000018 -2.8172699999999975
upperneck 22.8421 -1.2966399999999982 -1.51471
head 10.0184 -1.029840000000001 -0.23483700000000007
lclavicle -3.836540000000005e-14 3.1010399999999996e-14
lhumerus -24.63149999999999 -2.6815500000000014 80.4859
lradius 36.208699999999986
lwrist 8.979699999999994
lhand -32.368900000000004 21.444100000000002
lfingers 7.12502
lthumb -5.604880000000012 51.349999999999994
rclavicle -3.836540000000005e-14 3.1010399999999996e-14
rhumerus -40.0336 -33.21540000000003 -64.04980000000002
rradius 18.234
rwrist 14.044099999999997
rhand -21.7536 1.0
rfingers 7.12502
rthumb 4.64668 -9.996400000000001
13
root 0.8645889999999998 17.718 -21.24699999999993 -2.3690500000000005 0.8685769999999968 -0.40703199999999695
lfemur 11.642100000000033 -3.47374 -22.8101
ltibia 33.6608
lfoot -6.561750000000002 -10.514700000000015
ltoes -16.53130000000002
rfemur -28.315800000000024 5.350679999999999 22.036800000000007
rtibia 31.413499999999996
rfoot -1.076029999999987 -4.374660000000002
rtoes 6.4700600000000055
lowerback 1.0 -1.8762400000000001 -1.5004999999999975
upperback -0.5096879999999994 -2.5062099999999985 2.8390400000000002
thorax -6.811859999999998 -1.120479999999999 4.280730000000006
lowerneck -16.2451 -1.8555299999999981 -2.7647600000000008
upperneck 22.8948 -1.5168699999999973 -1.3613600000000015
head 9.98533 -1.1090999999999989 -0.21682099999999987
lclavicle -1.3119799999999997e-14 3.8166699999999916e-14
lhumerus -25.961299999999994 -1.4235100000000083 80.8814
lradius 34.39689999999999
lwrist 7.506429999999989
lhand -32.88850000000001 24.585600000000003
lfingers 7.12502
lthumb -6.106559999999995 54.4776
rclavicle -1.3119799999999997e-14 3.8166699999999916e-14
rhumerus -41.020599999999995 -34.25740000000002 -63.21869999999999
rradius 18.023600000000002
rwrist 13.863599999999984
rhand -21.7475 1.0
rfingers 7.12502
rthumb 4.652580000000002 -10.410500000000004
14
root 0.7688700000000004 17.8481 -20.455300000000022 -2.80736 0.5110080000000015 -1.1321100000000022
lfemur 7.183170000000038 -2.261180000000001 -20.6855
ltibia 43.02939999999998
lfoot 6.055509999999985 -15.51159999999998
ltoes -13.538000000000011
rfemur -25.33309999999998 5.707550000000004 23.712500000000002
rtibia 32.06159999999999
rfoot -2.989070000000001 -4.224970000000002
rtoes 5.9391500000000015
lowerback 1.0 -2.022430000000001 -1.2269499999999987
upperback -0.9051560000000023 -2.631560000000009 3.2037799999999965
thorax -7.360010000000004 -1.1674200000000008 4.566449999999996
lowerneck -14.910700000000002 -1.7614100000000001 -3.253569999999999
upperneck 22.9416 -1.352599999999999 -1.2090400000000014
head 9.75527 -1.0577499999999995 -0.04794959999999977
lclavicle 2.325780000000005e-14 -3.896179999999994e-14
lhumerus -27.810600000000004 1.830630000000003 80.8844
lradius 31.589600000000015
lwrist 5.84595
lhand -32.37429999999999 22.081399999999995
lfingers 7.12502
lthumb -5.6100899999999925 51.9872
rclavicle 2.325780000000005e-14 -3.896179999999994e-14
rhumerus -40.612799999999986 -30.82029999999999 -65.0976
rradius 18.494899999999987
rwrist 11.233599999999996
rhand -18.9083 1.0
rfingers 7.12502
rthumb 7.393659999999999 -9.572549999999996
15
root 0.6815370000000002 17.9648 -19.707399999999957 -3.003540000000001 0.13955499999999854 -3.093879999999998
lfemur 1.0582999999999974 -1.6525199999999989 -17.5175
ltibia 52.88250000000003
lfoot 14.555000000000032 -22.658600000000025
ltoes 8.98653
rfemur -21.804299999999984 6.668090000000001 26.5842
rtibia 31.02689999999999
rfoot -4.594810000000007 -4.662100000000001
rtoes 5.329079999999998
lowerback 1.0 -1.6052900000000025 1.07352
upperback -0.6062889999999999 -1.752610000000005 3.161260000000002
thorax -7.272679999999998 -0.8313620000000015 3.0591099999999987
lowerneck -16.5495 -2.38828 -2.56745
upperneck 23.6304 -2.3886800000000017 -1.0384899999999986
head 10.3139 -1.4616399999999996 -0.2642020000000001
lclavicle -4.808100000000003e-15 2.3854200000000044e-15
lhumerus -27.994299999999996 1.6203900000000027 81.2747
lradius 30.575000000000003
lwrist 5.6526099999999975
lhand -30.0191 24.7989
lfingers 7.12502
lthumb -3.335919999999999 54.7525
rclavicle -4.808100000000003e-15 2.3854200000000044e-15
rhumerus -39.733200000000004 -32.62389999999998 -65.4679
rradius 17.811699999999995
rwrist 14.293099999999987
rhand -19.267900000000004 1.0
rfingers 7.12502
rthumb 7.046500000000001 -8.686899999999998
